<?xml version="1.0" standalone="no"?>
<!DOCTYPE svg PUBLIC "-//W3C//DTD SVG 20010904//EN"
 "http://www.w3.org/TR/2001/REC-SVG-20010904/DTD/svg10.dtd">
<svg version="1.0" xmlns="http://www.w3.org/2000/svg"
 width="300.000000pt" height="300.000000pt" viewBox="0 0 300.000000 300.000000"
 preserveAspectRatio="xMidYMid meet">

<g transform="translate(0.000000,300.000000) scale(0.100000,-0.100000)"
fill="#000000" stroke="none">
<path d="M899 2810 c-111 -27 -197 -72 -271 -140 -119 -108 -168 -215 -168
-363 0 -135 42 -235 141 -341 78 -84 191 -156 364 -231 159 -70 187 -84 196
-98 4 -5 0 -30 -7 -55 -28 -93 -14 -245 31 -332 9 -17 14 -34 11 -37 -6 -7
-71 14 -121 40 -115 58 -218 162 -338 345 l-81 122 -88 0 -88 0 2 -271 3 -272
90 -35 c277 -106 493 -141 713 -112 l72 9 72 -46 c40 -26 118 -67 173 -91 282
-123 481 -231 511 -277 25 -38 16 -142 -16 -183 -42 -52 -108 -82 -181 -82
-165 1 -345 139 -510 394 l-74 115 -88 1 -87 0 2 -271 3 -272 90 -35 c125 -48
232 -79 355 -104 87 -17 129 -19 242 -15 120 4 150 9 235 38 209 69 349 201
405 383 17 57 20 85 16 170 -5 91 -9 109 -41 171 -73 145 -133 191 -446 343
-119 57 -217 105 -218 106 -1 1 7 31 18 66 17 53 20 82 16 161 -3 53 -10 106
-17 118 -22 42 -5 41 60 -3 79 -53 205 -182 285 -293 l60 -83 78 0 79 0 -6 48
c-3 26 -8 140 -12 254 l-6 207 -137 45 c-194 63 -277 77 -453 75 -136 -2 -148
0 -177 20 -17 12 -120 65 -228 118 -474 228 -498 241 -533 277 -33 35 -35 41
-35 104 0 77 16 107 76 141 44 25 123 28 196 6 117 -35 289 -183 418 -362 l60
-83 81 0 80 0 -4 113 c-2 61 -7 175 -10 252 l-7 140 -140 47 c-77 26 -178 54
-225 62 -119 22 -323 20 -421 -4z m566 -235 c2 -11 6 -45 8 -75 l4 -54 -23 45
c-12 25 -50 71 -83 102 l-61 56 75 -27 c55 -20 77 -32 80 -47z m-747 -487 c28
-26 79 -66 114 -89 63 -41 273 -146 381 -189 56 -23 57 -24 39 -43 -19 -18
-23 -17 -193 65 -281 136 -394 224 -438 343 -32 84 -24 98 13 25 19 -37 56
-86 84 -112z m1427 -353 c2 -11 6 -47 9 -80 l5 -60 -24 46 c-13 25 -51 71 -84
102 -34 31 -61 58 -61 61 0 3 34 -7 75 -22 56 -20 77 -32 80 -47z m-590 -132
c30 -39 54 -108 41 -120 -2 -3 -16 13 -30 36 -14 22 -42 55 -61 72 -24 23 -35
41 -35 61 0 28 0 28 26 12 14 -10 41 -37 59 -61z m-866 -265 c12 -20 33 -44
47 -53 40 -26 22 -28 -40 -5 l-56 21 1 82 1 82 12 -45 c7 -25 23 -62 35 -82z
m673 -55 c21 -22 17 -43 -7 -43 -18 0 -64 96 -71 146 -5 39 -5 39 27 -21 17
-33 40 -70 51 -82z m260 -187 c35 -19 126 -62 203 -96 253 -110 322 -147 380
-205 60 -60 75 -99 74 -185 l-1 -55 -8 42 c-25 126 -71 161 -477 359 -270 132
-275 135 -258 154 10 11 19 20 21 20 2 0 32 -15 66 -34z m-257 -591 c10 -17
32 -42 49 -57 17 -14 28 -29 25 -33 -4 -3 -32 4 -63 15 l-56 21 1 87 1 87 12
-45 c7 -26 21 -59 31 -75z"/>
</g>
</svg>
